<svg width="20" height="16" viewBox="0 0 20 16" fill="none" xmlns="http://www.w3.org/2000/svg">
<path fill-rule="evenodd" clip-rule="evenodd" d="M0.916667 0C0.41041 0 0 0.41041 0 0.916667V3.66667C0 5.94484 1.84683 7.79167 4.125 7.79167H4.58333V14.6667C4.58333 15.1729 4.99374 15.5833 5.5 15.5833H9.16667C9.67294 15.5833 10.0833 15.1729 10.0833 14.6667V7.33333C10.0833 6.32078 10.9041 5.5 11.9167 5.5C12.9292 5.5 13.75 6.32078 13.75 7.33333V14.6667C13.75 15.1729 14.1604 15.5833 14.6667 15.5833H18.3333C18.8396 15.5833 19.25 15.1729 19.25 14.6667V7.33333C19.25 3.28324 15.9668 0 11.9167 0C9.39959 0 7.17968 1.26857 5.85998 3.19775C5.65412 3.15274 5.5 2.96937 5.5 2.75V0.916667C5.5 0.41041 5.08959 0 4.58333 0H0.916667Z" fill="#212529"/>
</svg>
